<?xml version="1.0" standalone="no"?>
<!DOCTYPE svg PUBLIC "-//W3C//DTD SVG 20010904//EN"
 "http://www.w3.org/TR/2001/REC-SVG-20010904/DTD/svg10.dtd">
<svg version="1.0" xmlns="http://www.w3.org/2000/svg"
 width="500.000000pt" height="500.000000pt" viewBox="0 0 500.000000 500.000000"
 preserveAspectRatio="xMidYMid meet">

<g transform="translate(0.000000,500.000000) scale(0.100000,-0.100000)"
fill="#000000" stroke="none">
<path d="M3975 4527 c-265 -107 -684 -417 -957 -707 l-94 -99 -11 30 c-17 44
-68 61 -200 67 l-113 5 0 43 c0 52 -8 74 -26 74 -7 0 -21 11 -30 25 -12 18
-25 25 -49 25 -18 0 -38 6 -44 14 -7 8 -28 16 -49 19 -20 3 -50 9 -65 12 -57
15 -115 -75 -102 -155 7 -39 6 -40 -23 -40 -40 0 -79 -33 -92 -78 -23 -84 -4
-252 29 -252 6 0 3 17 -6 38 -19 43 -21 162 -4 215 17 52 105 89 119 50 2 -7
-3 -13 -11 -13 -32 0 -37 -72 -7 -97 11 -10 20 -27 20 -38 0 -11 9 -40 20 -64
l20 -44 -70 6 c-38 3 -70 2 -70 -2 0 -9 81 -21 138 -21 28 0 32 -3 33 -27 l1
-28 10 28 c8 22 16 27 44 27 20 0 44 5 55 10 17 10 19 7 20 -22 1 -20 3 -25 6
-14 5 18 13 19 137 13 173 -9 191 -14 193 -58 2 -53 4 -56 14 -24 10 35 2 75
-16 75 -7 0 -24 9 -39 21 -21 17 -26 29 -26 65 0 69 19 132 48 154 26 21 26
35 0 25 -8 -3 -25 -24 -37 -46 -18 -32 -23 -57 -24 -120 0 -45 -4 -74 -9 -67
-4 7 -8 35 -8 61 0 33 -4 46 -11 41 -7 -4 -10 -25 -6 -59 l5 -52 -106 5 c-59
2 -108 6 -110 7 -2 1 8 20 23 40 14 21 25 44 25 51 0 7 12 14 27 16 37 4 55
41 48 96 l-6 42 103 0 c184 0 213 -19 213 -140 0 -66 -4 -83 -22 -109 -27 -35
-28 -42 -9 -35 23 9 26 -19 25 -241 -1 -431 -28 -510 -181 -530 -27 -3 -48
-10 -48 -14 0 -12 113 5 147 22 39 21 68 80 84 171 l12 69 210 214 c116 117
212 211 214 209 3 -2 -40 -58 -94 -123 -125 -150 -186 -236 -229 -321 -58
-114 -46 -118 81 -27 182 129 291 203 335 225 39 19 19 -5 -140 -164 -101
-102 -181 -188 -178 -191 3 -3 144 12 314 34 170 21 311 37 313 35 12 -11
-118 -56 -214 -74 -117 -23 -207 -50 -203 -61 2 -4 30 -27 64 -52 71 -52 141
-151 180 -253 21 -56 25 -85 25 -159 -1 -49 -7 -121 -15 -160 -13 -65 -13 -86
-1 -73 8 7 35 155 35 188 0 21 7 30 30 40 85 35 123 100 118 199 -2 36 -8 74
-12 84 -7 15 -3 17 30 17 88 0 291 65 322 102 7 9 15 31 18 50 9 58 -40 114
-156 177 l-53 29 54 11 c30 6 110 20 178 31 138 23 193 46 216 90 29 56 12 98
-54 133 -55 30 -118 47 -310 81 -79 15 -151 30 -159 35 -12 7 -4 15 34 37 198
114 406 275 455 352 33 53 36 74 12 98 -34 34 -149 6 -485 -119 -54 -20 -98
-35 -98 -33 0 3 119 93 265 201 146 109 274 209 285 223 24 30 26 85 3 107
-22 22 -97 14 -202 -21 -80 -27 -331 -146 -441 -210 l-65 -37 175 179 c240
244 340 373 340 437 0 23 -4 27 -27 27 -16 0 -64 -15 -108 -33z m-1639 -661
c3 -7 17 -14 32 -14 15 -1 42 -3 59 -4 18 -2 32 2 31 7 -2 6 -8 9 -15 7 -7 -2
-21 2 -31 7 -14 8 -10 10 20 11 56 0 74 -25 80 -114 3 -43 26 -61 35 -27 3 12
12 21 19 21 17 0 19 -51 2 -68 -17 -17 -38 -15 -38 5 0 26 -15 3 -28 -44 -23
-79 -116 -126 -170 -86 -47 35 -57 68 -55 176 2 54 7 107 13 117 12 23 38 26
46 6z m-78 -138 l-3 -23 -13 23 c-10 18 -10 26 0 45 l13 22 3 -22 c2 -13 2
-33 0 -45z m959 -45 c-2 -5 -51 -84 -107 -178 -57 -93 -125 -208 -152 -255
l-49 -85 3 90 3 90 48 60 c58 71 248 285 254 285 2 0 2 -3 0 -7z"/>
<path d="M2300 3800 c0 -5 11 -10 25 -10 14 0 25 5 25 10 0 6 -11 10 -25 10
-14 0 -25 -4 -25 -10z"/>
<path d="M2390 3791 c0 -5 11 -8 25 -8 14 0 25 3 25 8 0 5 -11 9 -25 9 -14 0
-25 -4 -25 -9z"/>
<path d="M2350 3769 c0 -6 -9 -8 -20 -4 -11 4 -20 2 -20 -4 0 -6 7 -11 15 -11
13 0 13 -3 3 -20 -11 -17 -10 -22 2 -30 22 -14 50 -12 50 4 0 29 -13 76 -21
76 -5 0 -9 -5 -9 -11z m6 -56 c-10 -10 -19 5 -10 18 6 11 8 11 12 0 2 -7 1
-15 -2 -18z"/>
<path d="M2410 3760 c0 -5 5 -10 10 -10 6 0 10 5 10 10 0 6 -4 10 -10 10 -5 0
-10 -4 -10 -10z"/>
<path d="M2373 3676 c-25 -12 -30 -26 -10 -26 18 0 52 26 41 32 -5 2 -19 0
-31 -6z"/>
<path d="M1472 4067 c-6 -7 -29 -58 -52 -112 -22 -55 -48 -111 -58 -125 -10
-14 -57 -44 -103 -67 -152 -76 -219 -154 -219 -258 0 -50 27 -126 50 -140 8
-5 6 -13 -9 -29 -25 -27 -41 -69 -41 -108 0 -28 2 -30 28 -23 45 11 111 17
127 11 29 -11 -4 -65 -75 -121 -83 -66 -112 -111 -117 -179 -3 -39 1 -59 17
-84 24 -38 89 -71 140 -72 38 0 84 25 75 41 -4 5 -15 3 -28 -6 -46 -32 -134
-6 -168 49 -43 70 -13 148 89 229 45 36 74 69 86 96 19 41 46 56 46 24 0 -9
-17 -48 -37 -87 -31 -59 -37 -82 -37 -131 -1 -78 25 -145 74 -189 71 -64 164
-71 219 -16 44 44 56 91 54 205 -1 76 -7 120 -27 184 -14 47 -26 88 -26 92 0
5 25 9 56 11 74 4 85 19 56 79 -22 45 -74 89 -106 89 -11 0 -30 12 -43 26 -20
22 -30 25 -60 21 -28 -5 -34 -3 -29 9 3 9 6 18 6 20 0 3 12 9 26 15 20 7 40 5
78 -7 43 -14 69 -35 164 -132 62 -64 138 -149 170 -190 49 -65 54 -75 39 -83
-9 -6 -17 -16 -17 -24 0 -7 -4 -15 -10 -17 -5 -1 -11 -25 -12 -53 l-3 -50 75
-6 c41 -3 82 -8 90 -12 14 -7 190 -289 194 -310 0 -5 -59 -28 -132 -53 -141
-46 -259 -98 -305 -134 -45 -35 -60 -75 -59 -159 1 -123 52 -240 208 -472 82
-123 97 -139 129 -139 15 0 27 -11 38 -36 22 -45 16 -57 -74 -143 -51 -49 -69
-73 -69 -92 0 -65 60 -60 225 21 124 60 185 104 185 133 0 12 -28 67 -63 122
-62 99 -62 100 -50 138 11 31 10 45 -3 85 -26 74 -90 202 -129 256 -20 27 -34
56 -33 65 4 18 322 132 420 151 79 16 146 62 179 125 30 56 47 135 30 135 -6
0 -11 -10 -11 -21 0 -93 -78 -184 -180 -213 -176 -49 -434 -136 -451 -153 -15
-15 -6 -39 43 -115 45 -69 128 -255 128 -287 0 -11 -12 -33 -26 -50 -29 -35
-136 -101 -162 -101 -20 0 -62 52 -156 196 -123 190 -177 335 -162 437 15 96
88 145 348 232 90 30 162 58 160 62 -2 5 -17 32 -34 61 l-31 54 14 90 c7 51
19 92 26 95 6 3 103 -20 213 -51 207 -56 229 -58 259 -22 12 14 15 14 36 0 29
-19 69 -15 73 8 2 11 -8 23 -28 33 -28 14 -31 20 -24 43 18 66 14 72 -75 118
-46 24 -93 44 -105 44 -11 0 -27 4 -35 9 -20 13 -6 73 24 110 14 16 25 39 25
52 1 33 36 108 55 115 8 3 12 10 9 16 -3 5 -20 -3 -37 -19 l-30 -28 38 69 c40
74 38 86 -16 86 -22 0 -30 -7 -43 -40 -22 -54 -38 -165 -30 -206 4 -22 0 -48
-10 -74 -9 -22 -16 -56 -16 -76 0 -28 6 -38 30 -52 16 -9 30 -20 30 -24 0 -10
7 -11 -75 7 -39 8 -104 15 -145 16 -128 2 -122 -10 -83 159 25 105 45 165 73
217 32 60 36 72 23 77 -67 26 -143 -163 -143 -356 l0 -80 -30 6 c-17 3 -55 18
-85 32 -50 25 -94 27 -80 4 4 -6 -9 -10 -33 -10 -37 0 -42 4 -90 68 -28 38
-83 104 -121 146 -39 43 -69 81 -67 85 2 3 20 14 39 24 34 19 34 19 60 -5 24
-23 248 -118 310 -132 58 -13 23 10 -56 38 -115 40 -246 102 -253 120 -3 9 8
29 30 51 46 46 75 102 83 162 3 27 14 59 23 73 14 19 18 46 18 115 1 98 10
146 32 153 10 4 12 -4 6 -37 -3 -22 -2 -41 3 -41 5 0 12 25 16 55 3 30 11 55
16 55 7 0 8 -21 3 -56 -5 -41 -4 -55 5 -50 6 4 11 17 11 29 0 33 11 67 21 67
5 0 7 -26 3 -57 -6 -63 8 -56 20 10 4 20 11 37 16 37 15 0 12 -47 -7 -106 -19
-60 -13 -76 17 -49 11 10 23 15 27 11 4 -3 -16 -30 -45 -59 -35 -36 -71 -91
-116 -177 l-66 -126 38 0 c20 0 73 -3 117 -7 95 -8 60 8 -41 18 -35 4 -67 11
-69 16 -3 4 15 50 41 101 32 65 65 113 110 160 72 75 82 103 33 96 -30 -5 -31
-4 -24 26 17 77 18 106 4 110 -8 2 -23 7 -34 12 -34 13 -75 12 -83 -1 -4 -7
-16 -14 -27 -17 -29 -5 -44 -59 -44 -165 -1 -85 -10 -119 -26 -93 -12 20 -35
9 -81 -36 -25 -25 -48 -43 -50 -41 -3 2 2 30 11 62 24 95 30 178 12 193 -24
20 -42 5 -83 -73 -21 -40 -40 -72 -42 -70 -2 2 2 39 8 84 14 92 8 131 -19 131
-24 0 -45 -25 -66 -83 -10 -26 -20 -46 -22 -44 -2 2 2 39 8 81 5 43 8 84 5 92
-7 18 -50 18 -64 1z m40 -73 c-2 -32 -12 -99 -23 -149 -22 -102 -22 -105 -10
-105 5 0 32 59 61 130 32 79 58 130 66 130 8 0 14 -10 14 -26 0 -42 -21 -165
-35 -205 -8 -22 -10 -41 -5 -44 12 -7 55 52 100 138 45 86 65 89 56 8 -4 -33
-16 -91 -26 -130 -11 -39 -20 -75 -20 -81 0 -21 22 -8 81 46 33 31 63 53 67
50 3 -4 5 -30 3 -59 -5 -98 -47 -164 -149 -232 -73 -49 -102 -47 -64 4 12 17
18 32 13 36 -5 3 -18 -7 -29 -22 l-19 -26 -35 26 c-67 51 -152 72 -198 47 -43
-23 -57 -176 -19 -224 38 -48 104 -24 115 43 10 60 17 66 53 51 39 -16 73 -62
69 -93 -3 -20 -10 -23 -76 -28 -40 -3 -78 -11 -84 -17 -9 -9 -6 -12 14 -12 28
0 26 5 69 -150 7 -25 13 -90 13 -145 1 -117 -16 -158 -77 -188 -106 -53 -228
55 -230 202 0 45 7 70 37 128 20 40 36 82 36 93 0 14 7 20 21 20 20 0 21 4 17
45 -10 88 -69 133 -159 121 -45 -6 -49 -5 -70 25 -27 38 -37 121 -20 172 19
56 85 114 187 163 50 25 98 53 107 62 20 23 54 93 84 171 14 36 29 72 35 79
22 26 33 5 30 -54z m-90 -546 c28 -23 29 -48 3 -73 -33 -34 -85 -16 -85 31 0
44 48 69 82 42z m-187 -102 c22 -10 41 -27 51 -50 28 -57 17 -66 -76 -66 -92
0 -97 11 -15 36 30 10 55 21 55 26 0 18 -102 -18 -150 -52 -37 -26 -40 -25
-40 9 0 17 11 43 27 61 42 51 86 61 148 36z m191 -21 c-17 -26 -55 -26 -72 0
-13 19 -11 20 36 20 47 0 48 -1 36 -20z m584 -215 c8 -5 11 -10 5 -10 -5 0
-17 5 -25 10 -8 5 -10 10 -5 10 6 0 17 -5 25 -10z m25 -25 c22 -2 60 -10 85
-20 25 -9 100 -20 170 -25 69 -5 160 -18 204 -30 43 -11 80 -19 83 -16 2 2 -3
18 -12 35 -8 17 -13 31 -10 31 8 0 108 -51 122 -62 10 -8 6 -24 -19 -70 -52
-98 -49 -97 -304 -27 -202 55 -224 60 -289 54 -53 -5 -79 -2 -108 10 -27 11
-52 14 -89 9 -37 -5 -49 -4 -44 5 4 6 22 11 39 12 18 0 41 4 52 9 15 6 4 9
-40 11 l-60 2 63 9 c82 13 82 31 1 22 -46 -5 -60 -4 -55 5 4 6 27 11 51 11 24
0 47 5 50 10 4 6 -11 10 -37 10 -33 0 -39 3 -28 11 9 6 39 7 75 3 33 -4 78 -8
100 -9z m475 -15 c0 -5 -7 -7 -15 -4 -8 4 -15 8 -15 10 0 2 7 4 15 4 8 0 15
-4 15 -10z m-386 -129 c5 -8 -17 -158 -25 -165 -2 -2 -25 31 -51 75 l-47 79
32 1 c18 0 41 4 52 9 27 11 33 12 39 1z m20 -1202 c-18 -20 -65 -49 -80 -49
-4 0 15 16 42 35 56 40 65 43 38 14z m86 -75 c28 -42 50 -85 50 -95 0 -34
-129 -113 -268 -165 -82 -31 -102 -31 -102 0 0 38 58 93 105 101 82 13 86 15
101 51 12 28 13 46 5 82 -9 45 -9 48 22 74 18 15 33 27 35 28 1 0 25 -34 52
-76z m-139 1 c0 -13 -41 -19 -41 -7 0 11 20 22 33 18 5 -1 8 -6 8 -11z m19
-40 c0 -9 -9 -15 -25 -15 -26 0 -34 15 -12 23 23 10 37 7 37 -8z m0 -40 c0
-10 -10 -15 -30 -15 -36 0 -38 7 -7 20 32 13 37 12 37 -5z m-25 -45 c-3 -5
-20 -10 -36 -10 -18 0 -28 4 -24 10 3 6 20 10 36 10 18 0 28 -4 24 -10z"/>
<path d="M1269 3613 c-1 -5 -2 -12 -3 -18 0 -5 -7 -20 -14 -32 -7 -13 -9 -23
-4 -23 14 0 46 39 39 47 -4 3 -2 12 4 20 9 10 8 13 -5 13 -9 0 -17 -3 -17 -7z"/>
<path d="M1367 3423 c-4 -3 -7 -15 -7 -25 0 -13 7 -18 25 -18 20 0 25 5 25 25
0 18 -5 25 -18 25 -10 0 -22 -3 -25 -7z"/>
<path d="M1146 3331 c-4 -5 -2 -12 3 -15 5 -4 12 -2 15 3 4 5 2 12 -3 15 -5 4
-12 2 -15 -3z"/>
<path d="M1973 3857 c4 -10 7 -23 7 -28 0 -5 5 -9 10 -9 16 0 12 26 -7 41 -15
12 -16 12 -10 -4z"/>
<path d="M2100 3436 c0 -24 12 -41 22 -30 8 7 -3 54 -13 54 -5 0 -9 -11 -9
-24z"/>
<path d="M2828 3454 c-5 -4 -8 -16 -8 -28 0 -14 3 -17 11 -9 6 6 9 19 7 28 -1
9 -6 13 -10 9z"/>
<path d="M2326 3431 c-3 -4 6 -13 19 -19 15 -7 25 -8 25 -2 0 13 -38 32 -44
21z"/>
<path d="M2412 3423 c-6 -2 -10 -9 -7 -13 7 -11 35 -2 35 11 0 10 -8 10 -28 2z"/>
<path d="M2630 3280 c0 -5 11 -10 24 -10 14 0 28 5 31 10 4 6 -7 10 -24 10
-17 0 -31 -4 -31 -10z"/>
<path d="M2670 3250 c0 -5 6 -10 14 -10 8 0 18 5 21 10 3 6 -3 10 -14 10 -12
0 -21 -4 -21 -10z"/>
<path d="M1840 2834 c1 -16 29 -46 40 -42 6 2 0 14 -14 27 -14 14 -26 20 -26
15z"/>
<path d="M1696 2792 c-3 -5 3 -17 14 -27 17 -15 20 -16 20 -3 0 19 -26 42 -34
30z"/>
<path d="M1590 2766 c0 -17 48 -76 61 -76 6 0 -1 15 -15 33 -15 19 -26 39 -26
45 0 7 -4 12 -10 12 -5 0 -10 -6 -10 -14z"/>
<path d="M1670 2741 c0 -12 49 -51 63 -51 6 0 -2 14 -18 30 -29 30 -45 38 -45
21z"/>
<path d="M1147 2713 c-33 -113 -41 -500 -13 -650 29 -162 82 -297 163 -419 20
-30 39 -51 44 -48 5 3 -9 31 -30 62 -75 111 -134 263 -162 422 -18 98 -18 405
0 538 7 57 11 105 8 108 -3 3 -8 -3 -10 -13z"/>
<path d="M2986 2411 c-3 -5 5 -16 19 -25 28 -18 35 -20 35 -7 0 13 -48 42 -54
32z"/>
<path d="M2980 2355 c0 -13 45 -95 52 -95 13 0 10 12 -14 58 -20 36 -38 54
-38 37z"/>
<path d="M1905 2270 c3 -5 10 -10 16 -10 5 0 9 5 9 10 0 6 -7 10 -16 10 -8 0
-12 -4 -9 -10z"/>
<path d="M1880 2250 c0 -12 28 -25 36 -17 3 3 -4 10 -15 17 -15 7 -21 7 -21 0z"/>
<path d="M3521 2113 c-1 -99 -14 -174 -43 -247 -21 -54 -54 -106 -68 -106 -16
0 -29 73 -36 203 -5 85 -11 126 -18 124 -6 -2 -25 -73 -42 -158 -33 -163 -56
-224 -100 -258 -25 -20 -28 -20 -45 -5 -27 25 -32 89 -15 189 9 50 16 98 16
108 0 37 -19 14 -40 -47 -41 -123 -123 -229 -260 -334 -47 -36 -100 -79 -118
-96 -37 -35 -147 -200 -214 -321 -39 -72 -47 -80 -76 -83 -33 -3 -40 2 -90 67
-16 20 -39 27 -153 48 -219 39 -412 111 -577 215 -72 46 -95 45 -32 -1 105
-76 368 -189 481 -207 59 -10 69 -36 69 -181 0 -65 -3 -162 -7 -215 -6 -94 -7
-98 -29 -98 -13 0 -58 -5 -101 -12 -67 -10 -83 -16 -112 -45 -26 -26 -31 -36
-22 -47 8 -10 9 -16 1 -21 -10 -6 -15 -45 -5 -45 2 0 27 9 55 20 28 11 52 20
55 20 2 0 -2 -13 -8 -30 -19 -49 2 -54 60 -15 65 43 93 47 52 6 -28 -28 -39
-61 -20 -61 7 0 59 19 164 59 l27 11 -16 -25 c-18 -27 -12 -75 9 -75 6 0 47
31 91 69 l79 69 85 -29 c47 -16 90 -25 94 -21 5 5 4 22 -2 38 -8 24 -25 38
-72 60 l-60 29 4 199 c3 148 7 201 16 204 7 2 27 32 44 65 41 83 172 284 211
326 18 18 66 59 108 91 97 75 206 192 247 266 18 33 30 49 27 37 -13 -48 -7
-159 10 -192 14 -28 20 -32 43 -27 36 9 87 68 106 123 8 24 23 92 32 149 10
58 21 99 24 92 4 -7 10 -56 13 -109 4 -53 11 -108 16 -122 31 -81 114 33 147
201 15 81 19 232 5 232 -4 0 -9 -39 -10 -87z m-1283 -938 c45 -7 51 -15 27
-35 -24 -20 -67 -15 -87 10 -23 28 -23 43 0 36 9 -2 36 -8 60 -11z m133 -55
l28 -35 -7 -205 -7 -205 -34 -3 c-19 -2 -52 4 -73 14 l-38 17 7 201 c6 199 6
201 32 227 34 35 58 32 92 -11z m-137 -18 c9 -16 -10 -31 -32 -25 -30 7 -28
33 2 33 14 0 27 -4 30 -8z m223 -42 c9 0 13 -8 11 -22 -2 -17 -10 -23 -28 -23
-20 0 -26 6 -28 29 -3 23 0 28 13 22 9 -3 23 -6 32 -6z m-227 -45 c0 -41 -2
-45 -25 -45 -18 0 -25 5 -25 20 0 11 7 20 15 20 8 0 15 5 15 10 0 6 -7 10 -15
10 -8 0 -15 7 -15 15 0 9 9 15 25 15 23 0 25 -4 25 -45z m240 -45 c0 -20 -15
-25 -44 -14 -28 11 -18 34 14 34 23 0 30 -4 30 -20z m-240 -45 c0 -29 -29 -35
-50 -10 -16 19 -4 35 26 35 19 0 24 -5 24 -25z m238 -44 c-3 -42 -5 -46 -30
-49 -29 -3 -40 21 -15 32 10 5 10 7 0 12 -7 3 -13 18 -13 33 0 25 3 27 30 23
30 -4 31 -6 28 -51z m-238 -22 c0 -11 -7 -19 -17 -19 -27 0 -47 16 -40 33 8
22 57 10 57 -14z m-13 -39 c13 0 15 -11 11 -65 -3 -56 -1 -66 14 -71 30 -9 10
-24 -33 -24 -56 0 -103 -22 -127 -61 -22 -36 -82 -79 -82 -59 0 6 14 25 30 42
17 17 28 33 25 36 -3 3 -35 -7 -72 -21 -37 -15 -69 -24 -72 -21 -8 8 40 42 63
46 11 2 21 8 23 15 3 9 -4 10 -29 2 -48 -13 -55 -11 -33 11 13 13 45 23 95 30
41 6 90 13 108 16 l32 5 0 66 c0 55 2 64 16 59 9 -3 23 -6 31 -6z m243 -89 l0
-79 65 -31 c39 -18 65 -36 65 -45 0 -20 7 -21 -80 9 -40 14 -77 25 -81 25 -4
0 -42 -31 -83 -70 -42 -38 -78 -70 -81 -70 -3 0 -5 10 -5 21 0 12 17 36 37 55
20 19 34 36 31 39 -5 5 -59 -14 -188 -65 l-54 -21 19 21 c22 25 76 54 118 64
48 11 21 23 -35 15 -29 -4 -62 -8 -73 -8 -19 -1 -19 0 2 20 20 21 60 29 224
45 l57 5 7 75 c6 70 8 74 31 74 23 0 24 -2 24 -79z"/>
<path d="M2547 2151 c3 -12 10 -21 15 -21 13 0 6 32 -9 37 -7 3 -9 -3 -6 -16z"/>
<path d="M1395 2053 c2 -10 7 -39 10 -65 3 -27 11 -48 16 -48 5 0 7 18 3 43
-9 68 -14 87 -23 87 -5 0 -8 -8 -6 -17z"/>
<path d="M2573 1707 c-18 -39 -16 -55 3 -35 9 8 14 26 12 39 -3 23 -3 23 -15
-4z"/>
<path d="M2533 1700 c-20 -50 -24 -70 -14 -70 12 0 34 66 28 83 -3 7 -9 1 -14
-13z"/>
<path d="M1366 1613 c9 -36 41 -100 54 -108 16 -10 12 6 -15 59 -14 27 -25 55
-25 63 0 7 -5 13 -10 13 -6 0 -8 -11 -4 -27z"/>
<path d="M1446 1552 c-7 -11 42 -89 72 -116 18 -16 22 -16 22 -4 0 9 -8 22
-17 29 -9 8 -29 33 -44 57 -15 24 -30 39 -33 34z"/>
</g>
</svg>
