<?xml version="1.0" standalone="no"?>
<!DOCTYPE svg PUBLIC "-//W3C//DTD SVG 20010904//EN"
 "http://www.w3.org/TR/2001/REC-SVG-20010904/DTD/svg10.dtd">
<svg version="1.0" xmlns="http://www.w3.org/2000/svg"
 width="500.000000pt" height="500.000000pt" viewBox="0 0 500.000000 500.000000"
 preserveAspectRatio="xMidYMid meet">

<g transform="translate(0.000000,500.000000) scale(0.100000,-0.100000)"
fill="#000000" stroke="none">
<path d="M3210 4639 c-206 -9 -405 -18 -441 -18 l-66 -1 4 -97 c2 -54 6 -131
9 -170 l6 -73 34 0 c19 0 34 -3 34 -7 0 -5 -11 -116 -25 -248 -13 -132 -23
-240 -22 -241 1 -1 200 -20 442 -44 242 -23 442 -44 444 -46 2 -2 -260 -4
-582 -4 l-587 0 0 -180 0 -179 -42 -11 c-24 -7 -105 -29 -180 -49 -155 -43
-163 -41 -145 26 9 36 7 50 -23 134 -35 102 -46 121 -55 97 -3 -8 8 -49 25
-90 16 -42 30 -92 30 -111 l0 -34 -82 -18 c-100 -21 -242 -71 -258 -90 -6 -8
-10 -22 -8 -32 3 -14 13 -18 46 -18 41 0 43 -2 73 -55 56 -99 117 -150 180
-150 18 0 118 37 228 85 108 47 199 85 203 85 4 0 9 -51 10 -112 l3 -113 648
-3 647 -2 0 189 0 190 27 13 c39 19 74 88 80 158 7 74 -10 104 -67 121 l-40
12 0 64 0 63 40 0 c22 0 40 1 41 3 3 8 56 553 54 555 -2 2 -137 16 -300 32
-164 16 -300 32 -303 35 -3 3 24 5 59 5 94 0 462 20 467 25 2 2 1 76 -3 164
l-7 161 -112 -1 c-61 -1 -280 -10 -486 -20z m573 -1120 c56 -15 73 -47 58
-112 -19 -86 -71 -154 -71 -93 0 34 -10 37 -59 20 -41 -14 -61 -12 -61 6 0 4
24 14 53 20 28 7 59 16 67 21 28 15 -17 22 -65 10 -24 -6 -52 -11 -62 -11 -42
1 21 29 79 36 32 4 61 10 63 15 11 16 -17 20 -76 9 -41 -8 -65 -8 -72 -1 -9 9
48 31 85 31 24 0 48 11 48 22 0 5 -19 8 -43 7 -53 -3 -84 12 -47 22 37 10 61
10 103 -2z m-893 -18 c0 -5 -12 -18 -27 -29 -40 -29 -26 -33 37 -12 50 17 102
24 155 21 34 -2 -3 -19 -57 -26 -62 -9 -62 -25 0 -25 108 0 126 -28 20 -32
-46 -2 -73 -7 -76 -15 -3 -10 14 -13 60 -14 35 -1 74 -5 88 -9 33 -10 19 -13
-62 -10 -79 2 -93 -16 -20 -25 76 -10 93 -15 86 -26 -3 -6 -26 -8 -58 -4 -47
6 -57 4 -106 -27 -50 -31 -59 -33 -149 -35 l-97 -2 -184 -79 c-102 -44 -230
-100 -285 -125 -154 -69 -191 -80 -231 -67 -19 7 -49 30 -68 53 -40 50 -99
164 -93 181 4 9 194 66 221 66 3 0 10 -9 16 -20 9 -17 5 -22 -29 -40 -40 -20
-57 -37 -48 -46 3 -3 28 6 56 21 57 28 305 101 477 140 180 40 213 56 299 144
46 47 75 64 75 42z m-1100 -330 c0 -11 -31 -24 -39 -16 -3 3 1 10 9 15 19 12
30 12 30 1z"/>
<path d="M2138 4530 c-10 -6 -18 -18 -18 -26 0 -11 -9 -13 -39 -8 -31 5 -43 2
-60 -15 -12 -12 -21 -31 -21 -43 -1 -15 -13 -30 -33 -43 -27 -17 -33 -27 -35
-63 -2 -26 3 -50 12 -64 14 -19 13 -23 -4 -46 -24 -29 -26 -65 -5 -82 8 -7 15
-27 15 -45 0 -44 28 -77 67 -79 27 -1 38 -11 73 -64 23 -34 46 -64 51 -67 5
-4 9 -28 9 -54 l0 -48 -45 -13 c-27 -7 -45 -18 -45 -27 0 -15 15 -13 78 13 29
12 32 17 32 58 l0 45 56 -30 c31 -16 62 -29 70 -29 8 0 14 -4 14 -10 0 -5 5
-10 12 -10 6 0 19 -7 28 -15 21 -19 91 -25 97 -7 3 8 -8 12 -36 12 -22 0 -42
4 -45 9 -10 16 5 41 28 47 27 6 62 109 72 207 4 37 10 67 15 67 19 0 39 35 39
69 0 39 -23 71 -52 71 -11 0 -17 15 -22 58 -11 90 -26 134 -56 162 -54 51
-213 94 -252 70z m271 -227 c8 -21 16 -44 18 -50 4 -9 -6 -13 -30 -13 -19 0
-40 -7 -47 -15 -17 -21 -6 -29 20 -15 38 21 58 4 65 -55 18 -142 -13 -293 -57
-279 -17 5 -19 3 -13 -15 4 -12 2 -21 -4 -21 -6 0 -11 5 -11 10 0 6 -7 10 -16
10 -10 0 -14 -5 -10 -16 3 -8 2 -12 -4 -9 -6 3 -10 13 -10 21 0 8 -4 14 -10
14 -5 0 -10 -9 -10 -20 0 -25 -2 -25 -50 0 -58 30 -108 77 -141 134 -35 61
-35 62 -8 69 20 5 21 11 16 54 -4 32 -1 56 8 73 8 14 14 40 15 57 0 26 6 36
30 48 36 19 40 19 40 -1 0 -12 7 -15 30 -12 20 3 30 0 30 -9 0 -26 30 -12 55
26 13 22 34 41 47 44 13 2 25 5 28 6 4 0 12 -16 19 -36z m72 -93 c23 -13 26
-62 4 -80 -20 -16 -21 -14 -28 43 -7 51 -6 52 24 37z m-444 -72 c16 -20 25
-68 13 -68 -5 0 -10 -7 -10 -15 0 -20 -29 -19 -52 2 -20 18 -24 63 -6 81 16
16 43 15 55 0z"/>
<path d="M2220 4190 c-8 -5 -12 -11 -9 -14 8 -8 79 6 79 15 0 12 -51 11 -70
-1z"/>
<path d="M2320 4119 l0 -82 43 7 c23 4 46 11 50 15 9 9 -71 141 -85 141 -4 0
-8 -37 -8 -81z m61 -31 c8 -15 5 -18 -16 -18 -22 0 -25 4 -25 38 1 35 1 36 16
17 9 -11 20 -28 25 -37z"/>
<path d="M2380 4165 c0 -8 9 -15 20 -15 11 0 20 7 20 15 0 8 -9 15 -20 15 -11
0 -20 -7 -20 -15z"/>
<path d="M2233 4135 c-3 -9 -3 -18 0 -22 10 -10 37 6 37 22 0 20 -29 20 -37 0z"/>
<path d="M2270 4021 c0 -34 96 -54 120 -26 18 22 7 28 -23 14 -22 -10 -31 -9
-51 5 -28 18 -46 21 -46 7z"/>
<path d="M3971 4404 c-23 -29 -27 -44 -11 -44 12 0 59 50 60 63 0 17 -30 5
-49 -19z"/>
<path d="M4013 4319 c-18 -5 -33 -16 -33 -24 0 -8 1 -15 3 -15 21 1 92 30 95
38 4 14 -20 14 -65 1z"/>
<path d="M4000 4199 c0 -5 16 -17 35 -25 42 -17 45 -17 45 0 0 8 -14 19 -31
25 -40 14 -49 14 -49 0z"/>
<path d="M2340 3525 c0 -8 9 -19 19 -25 11 -5 23 -19 26 -30 6 -17 35 -30 35
-15 0 17 -33 66 -49 75 -26 13 -31 13 -31 -5z"/>
<path d="M2325 3491 c-5 -9 24 -31 39 -31 13 0 5 28 -10 34 -20 8 -22 8 -29
-3z"/>
<path d="M1965 2790 c-8 -13 41 -43 56 -34 8 5 4 13 -12 25 -27 21 -35 23 -44
9z"/>
<path d="M1970 2719 c0 -10 56 -37 87 -42 38 -5 22 17 -24 35 -56 21 -63 22
-63 7z"/>
<path d="M2566 2482 c-7 -12 153 -277 259 -427 126 -178 229 -349 333 -550 69
-134 99 -180 185 -282 77 -93 116 -150 161 -238 l58 -115 -23 -47 c-20 -39
-37 -54 -104 -92 -117 -67 -134 -65 -232 29 -43 41 -99 89 -125 107 -33 22
-58 53 -89 105 -53 92 -117 181 -239 333 -180 223 -409 545 -422 592 -1 4 1
27 5 51 6 32 20 57 62 102 51 56 68 90 45 90 -5 0 -10 -4 -10 -9 0 -5 -22 -33
-48 -63 -27 -29 -54 -63 -60 -74 -23 -44 -32 -191 -21 -360 24 -372 -46 -509
-293 -569 -131 -33 -542 -29 -745 6 -75 13 -105 39 -129 112 -14 43 -15 60 -5
115 29 155 33 157 405 157 244 1 291 3 299 16 6 9 0 70 -17 174 -46 285 -51
344 -51 592 0 161 -3 239 -10 232 -15 -15 -19 -385 -5 -514 6 -60 22 -175 35
-254 14 -79 25 -161 25 -183 l0 -38 -287 0 c-269 0 -291 -2 -333 -21 -43 -19
-56 -20 -250 -14 -170 6 -208 5 -217 -7 -8 -9 -16 -112 -24 -290 -13 -295 -12
-308 33 -308 28 0 73 26 90 52 9 13 30 57 47 98 41 96 70 126 134 140 67 14
115 4 145 -32 13 -16 33 -33 43 -39 65 -34 648 -52 795 -24 178 34 276 114
321 260 16 52 18 92 15 309 l-2 250 83 -126 c46 -69 164 -230 263 -359 214
-278 245 -320 307 -420 38 -62 60 -85 114 -122 38 -26 92 -71 122 -102 31 -33
65 -58 81 -62 23 -4 50 -35 136 -157 127 -178 142 -196 165 -196 21 0 65 31
283 203 189 149 199 162 153 205 -31 29 -73 28 -178 -4 -125 -38 -160 -31
-226 41 -46 50 -51 60 -46 90 4 25 -5 55 -37 127 -49 107 -95 175 -210 308
-67 78 -96 123 -159 250 -97 194 -212 385 -335 560 -52 74 -130 194 -173 267
-75 128 -86 142 -97 125z m-1553 -1062 c67 0 69 -1 62 -22 -4 -13 -14 -48 -22
-79 l-15 -57 -58 -11 c-69 -14 -117 -44 -143 -89 -18 -31 -19 -39 -7 -107 12
-70 12 -75 -11 -116 -27 -48 -67 -76 -94 -66 -15 7 -17 17 -11 100 3 50 9 168
12 260 8 209 4 202 128 193 49 -3 120 -6 159 -6z m113 -27 c-21 -71 -28 -122
-23 -174 4 -45 2 -59 -8 -59 -32 0 -32 146 0 213 17 37 41 52 31 20z m-74
-198 c3 -31 1 -35 -18 -35 -17 0 -23 7 -26 35 -3 31 -1 35 18 35 17 0 23 -7
26 -35z m-64 -8 c2 -18 -2 -29 -13 -33 -20 -8 -21 -7 -28 34 -6 30 -5 33 16
30 16 -2 23 -11 25 -31z m-64 -3 c20 -51 -6 -79 -30 -33 -13 26 -14 33 -2 40
19 12 25 11 32 -7z m-43 -61 c7 -20 7 -34 -3 -51 l-13 -24 -12 29 c-12 31 -8
73 8 73 5 0 14 -12 20 -27z m2671 -378 c-30 -37 -83 -78 -131 -99 -33 -15 -43
-17 -56 -6 -13 11 -4 19 62 57 43 24 89 55 103 68 32 32 50 16 22 -20z m55
-16 c7 -7 3 -18 -14 -35 -20 -20 -28 -23 -39 -13 -13 10 -11 15 7 36 25 26 31
27 46 12z m391 -25 c12 -8 22 -21 22 -29 0 -13 -384 -320 -415 -332 -22 -8
-35 6 -125 133 -78 111 -90 134 -70 134 5 0 32 14 60 31 l50 31 35 -31 c61
-53 100 -67 178 -63 21 2 44 18 85 62 69 75 132 98 180 64z m-338 -19 c0 -2
-8 -18 -18 -35 -16 -25 -21 -28 -35 -17 -16 11 -16 14 -2 35 14 19 55 32 55
17z m46 -37 c-3 -13 -6 -29 -6 -35 0 -15 -36 -18 -44 -4 -7 11 31 61 46 61 6
0 8 -10 4 -22z m73 -9 c-38 -53 -72 -53 -44 0 11 22 23 31 41 31 l25 0 -22
-31z"/>
<path d="M3014 1408 c4 -13 10 -42 13 -65 7 -51 23 -57 23 -9 0 56 -11 96 -27
96 -11 0 -13 -6 -9 -22z"/>
<path d="M2090 1310 c-45 -49 -58 -70 -43 -70 12 0 113 98 113 110 0 21 -27 6
-70 -40z"/>
<path d="M1992 1251 c-25 -43 -26 -51 -12 -51 9 0 60 72 60 85 0 3 -6 5 -13 5
-7 0 -23 -17 -35 -39z"/>
</g>
</svg>
